<svg xmlns="http://www.w3.org/2000/svg" width="20" height="18" viewBox="0 0 20 18">
    <g fill="none" fill-rule="evenodd">
        <g fill="#0093FF" fill-rule="nonzero">
            <g>
                <path d="M343.5 158c.096 0 .24-.094.433-.281l11.97-15c.065-.125.097-.219.097-.281 0-.063-.032-.157-.096-.282l-2.644-2.062c-.129-.063-.24-.094-.337-.094-.128 0-.224.031-.288.094l-9.616 12.047-3.846-3.657c-.192-.187-.352-.28-.48-.28-.065 0-.193.093-.385.28-.513.5-1.218 1.22-2.116 2.157l-.096.093c-.064.125-.096.203-.096.235 0 .062.032.156.096.281l.144.14 6.78 6.376c.16.156.32.234.48.234z" transform="translate(-336.000000, -409.000000) translate(0.000000, 269.000000)"/>
            </g>
        </g>
    </g>
</svg>
