<svg xmlns="http://www.w3.org/2000/svg" width="20" height="20" viewBox="0 0 20 20">
    <g fill="none" fill-rule="evenodd">
        <g fill="#FFF" fill-rule="nonzero">
            <g>
                <path d="M10 2C4.473 2 0 6.473 0 12s4.473 10 10 10 10-4.473 10-10S15.527 2 10 2zM6.13 4.06c-.302.825-.556 1.663-.761 2.512-.6-.182-1.189-.4-1.767-.655.732-.77 1.586-1.396 2.529-1.856zM2.827 6.854c.749.347 1.515.637 2.297.87-.227 1.21-.357 2.442-.388 3.691H1.191c.108-1.658.673-3.227 1.635-4.56zm0 10.294c-.962-1.334-1.527-2.903-1.635-4.561h3.544c.031 1.249.16 2.481.388 3.692-.782.232-1.548.522-2.297.869zm.776.936c.578-.255 1.168-.473 1.767-.655.205.85.46 1.687.762 2.511-.943-.46-1.796-1.086-2.53-1.856zm5.812 2.726c-.615-.04-1.219-.143-1.802-.306-.464-1.099-.833-2.225-1.11-3.374.95-.212 1.922-.336 2.912-.371v4.05zm0-5.224c-1.072.035-2.125.168-3.154.397-.205-1.114-.323-2.248-.352-3.396h3.506v2.999zm0-4.17H5.908c.03-1.15.147-2.283.352-3.397 1.029.229 2.082.362 3.154.397v3zm0-4.173c-.99-.035-1.961-.159-2.911-.371.276-1.15.645-2.275 1.109-3.374.583-.163 1.187-.265 1.802-.306v4.051zm7.76-.389c.962 1.334 1.527 2.903 1.635 4.561h-3.544c-.031-1.249-.16-2.481-.388-3.692.782-.232 1.548-.522 2.297-.869zm-.776-.936c-.578.255-1.168.473-1.767.655-.205-.85-.46-1.687-.762-2.511.943.46 1.796 1.086 2.53 1.856zm-5.812-2.726c.615.04 1.219.143 1.802.306.464 1.099.833 2.225 1.11 3.374-.95.212-1.922.336-2.912.371v-4.05zm0 5.224c1.072-.035 2.125-.168 3.154-.397.205 1.114.323 2.248.352 3.396h-3.506V8.415zm1.802 12.088c-.583.163-1.187.265-1.802.306v-4.051c.99.035 1.961.159 2.911.371-.276 1.15-.645 2.275-1.109 3.374zm-1.802-4.918v-3h3.506c-.03 1.15-.147 2.283-.352 3.397-1.029-.229-2.082-.362-3.154-.397zm3.283 4.354c.303-.824.557-1.662.762-2.511.6.182 1.189.4 1.767.655-.732.77-1.586 1.396-2.529 1.856zm3.305-2.792c-.749-.347-1.515-.637-2.297-.87.227-1.21.357-2.442.388-3.691h3.544c-.108 1.658-.673 3.227-1.635 4.56z" transform="translate(-291 -42) translate(291 40)"/>
            </g>
        </g>
    </g>
</svg>
